<svg width="512" height="512" viewBox="0 0 512 512" fill="none" xmlns="http://www.w3.org/2000/svg">
<rect width="512" height="512" rx="136" fill="url(#paint0_linear_243_534)"/>
<g filter="url(#filter0_d_243_534)">
<path d="M325.635 113.365H186.375C142.785 113.365 107.115 149.025 107.115 192.625V382.045C107.115 391.205 114.545 398.635 123.705 398.635C126.955 398.635 130.055 397.685 132.675 395.995C135.295 394.305 137.435 391.875 138.795 388.925C145.715 373.765 166.765 346.205 228.175 346.205H325.635C369.225 346.205 404.885 310.545 404.885 266.955V192.625C404.885 149.025 369.225 113.365 325.635 113.365ZM258.295 295.295V259.155H232.695C195.615 259.155 169.825 280.985 169.825 280.985C175.215 193.725 243.915 191.795 258.295 192.355V153.735L329.445 224.515L258.295 295.295Z" fill="white"/>
</g>
<defs>
<filter id="filter0_d_243_534" x="107.115" y="113.365" width="319.87" height="315.37" filterUnits="userSpaceOnUse" color-interpolation-filters="sRGB">
<feFlood flood-opacity="0" result="BackgroundImageFix"/>
<feColorMatrix in="SourceAlpha" type="matrix" values="0 0 0 0 0 0 0 0 0 0 0 0 0 0 0 0 0 0 127 0" result="hardAlpha"/>
<feOffset dx="14" dy="22"/>
<feGaussianBlur stdDeviation="4.05"/>
<feComposite in2="hardAlpha" operator="out"/>
<feColorMatrix type="matrix" values="0 0 0 0 0 0 0 0 0 0 0 0 0 0 0 0 0 0 1 0"/>
<feBlend mode="normal" in2="BackgroundImageFix" result="effect1_dropShadow_243_534"/>
<feBlend mode="normal" in="SourceGraphic" in2="effect1_dropShadow_243_534" result="shape"/>
</filter>
<linearGradient id="paint0_linear_243_534" x1="256" y1="0" x2="256" y2="512" gradientUnits="userSpaceOnUse">
<stop stop-color="#272B31"/>
<stop offset="1" stop-color="#121315"/>
</linearGradient>
</defs>
</svg>
