<?xml version="1.0" encoding="utf-8"?>
<!-- Generator: Adobe Illustrator 27.5.0, SVG Export Plug-In . SVG Version: 6.00 Build 0)  -->
<svg version="1.1" id="katman_1" xmlns="http://www.w3.org/2000/svg" xmlns:xlink="http://www.w3.org/1999/xlink" x="0px" y="0px"
	 viewBox="0 0 1105.761 334.305" style="enable-background:new 0 0 1105.761 334.305;" xml:space="preserve">
<style type="text/css">
	.st0{fill:#808386;}
	.st1{fill:#0F0F0F;}
</style>
<g>
	<g>
		<g>
			<g>
				<path class="st0" d="M348.652,31.785l19.674,0.068c4.847,0.017,9.193,0.788,13.037,2.312c3.844,1.524,7.115,3.632,9.815,6.321
					c2.698,2.691,4.77,5.919,6.211,9.687c1.441,3.769,2.153,7.906,2.138,12.411c-0.016,4.505-0.757,8.637-2.224,12.396
					c-1.467,3.758-3.561,6.973-6.278,9.644c-2.719,2.672-6.005,4.756-9.859,6.252c-3.854,1.498-8.206,2.238-13.053,2.222
					l-19.674-0.068L348.652,31.785z M367.974,83.861c6.899,0.024,12.238-1.839,16.015-5.59c3.777-3.751,5.677-8.99,5.7-15.72
					c0.023-6.672-1.84-11.91-5.591-15.716c-3.75-3.805-9.077-5.72-15.976-5.744l-9.837-0.034l-0.149,42.769L367.974,83.861z"/>
				<path class="st0" d="M425.744,50.017c3.193,0.011,6.128,0.577,8.805,1.699c2.675,1.121,4.979,2.683,6.913,4.686
					c1.93,2.004,3.434,4.375,4.509,7.115c1.073,2.741,1.605,5.708,1.594,8.901c-0.011,3.194-0.564,6.157-1.656,8.89
					c-1.094,2.734-2.614,5.095-4.558,7.085c-1.947,1.99-4.262,3.535-6.945,4.638c-2.685,1.103-5.623,1.648-8.816,1.637
					c-3.194-0.011-6.129-0.577-8.805-1.699c-2.677-1.121-4.981-2.682-6.913-4.686c-1.932-2.003-3.436-4.375-4.509-7.116
					c-1.075-2.741-1.606-5.707-1.595-8.902c0.011-3.193,0.563-6.157,1.657-8.89c1.092-2.733,2.612-5.094,4.558-7.084
					c1.945-1.989,4.26-3.535,6.945-4.638C419.611,50.552,422.55,50.006,425.744,50.017z M425.619,85.857
					c1.596,0.006,3.137-0.302,4.622-0.925c1.485-0.622,2.814-1.5,3.987-2.638c1.172-1.136,2.104-2.545,2.795-4.225
					c0.69-1.679,1.039-3.574,1.047-5.685c0.007-2.109-0.328-4.006-1.007-5.692c-0.679-1.684-1.602-3.098-2.765-4.244
					c-1.166-1.144-2.488-2.032-3.969-2.665c-1.481-0.632-3.019-0.951-4.615-0.957c-1.597-0.006-3.138,0.303-4.623,0.924
					c-1.485,0.623-2.814,1.502-3.987,2.638c-1.173,1.138-2.104,2.545-2.795,4.224c-0.69,1.681-1.039,3.576-1.047,5.685
					c-0.007,2.111,0.328,4.008,1.007,5.692c0.679,1.685,1.6,3.1,2.765,4.244c1.165,1.146,2.487,2.033,3.968,2.665
					C422.484,85.534,424.022,85.852,425.619,85.857z"/>
				<path class="st0" d="M449.518,51.468l10.35,0.036l8.025,29.026l0.342,0.001l9.51-28.965l9.837,0.034l9.223,29.03l0.342,0.001
					l8.142-28.97l10.179,0.035l-13.576,41.868l-10.008-0.035l-9.393-29.373l-0.341-0.001l-9.341,29.308l-10.008-0.035
					L449.518,51.468z"/>
				<path class="st0" d="M529.562,57.392l0.514,0.002c1.26-1.991,3.049-3.653,5.364-4.985c2.314-1.331,4.926-1.993,7.833-1.983
					c5.304,0.018,9.261,1.614,11.874,4.788c2.611,3.174,3.909,7.384,3.89,12.631l-0.09,25.918l-9.494-0.033l0.086-24.635
					c0.013-3.648-0.821-6.204-2.497-7.664c-1.677-1.46-3.884-2.194-6.621-2.204c-1.655-0.006-3.11,0.331-4.366,1.011
					c-1.257,0.68-2.345,1.604-3.26,2.769c-0.917,1.166-1.606,2.505-2.066,4.013c-0.463,1.51-0.695,3.092-0.701,4.746l-0.076,21.897
					l-9.495-0.033l0.146-41.914l8.981,0.031L529.562,57.392z"/>
				<path class="st0" d="M568.185,93.795l0.213-61.246l9.495,0.033l-0.213,61.246L568.185,93.795z"/>
				<path class="st0" d="M606.486,50.645c3.193,0.011,6.128,0.577,8.805,1.699c2.675,1.121,4.979,2.683,6.913,4.686
					c1.93,2.003,3.434,4.375,4.509,7.115c1.073,2.741,1.605,5.708,1.594,8.902c-0.011,3.194-0.564,6.157-1.656,8.89
					c-1.094,2.734-2.614,5.096-4.558,7.085c-1.947,1.99-4.262,3.535-6.945,4.638c-2.685,1.103-5.623,1.648-8.816,1.637
					c-3.194-0.011-6.129-0.577-8.805-1.699c-2.677-1.121-4.981-2.682-6.913-4.686c-1.932-2.003-3.436-4.375-4.509-7.116
					c-1.075-2.741-1.606-5.707-1.595-8.901c0.011-3.193,0.563-6.157,1.657-8.89c1.092-2.733,2.612-5.094,4.558-7.084
					c1.945-1.989,4.26-3.535,6.945-4.638C600.353,51.18,603.292,50.634,606.486,50.645z M606.361,86.486
					c1.596,0.006,3.137-0.302,4.622-0.925c1.485-0.622,2.814-1.5,3.987-2.638c1.172-1.136,2.104-2.544,2.795-4.224
					c0.69-1.679,1.039-3.574,1.047-5.685c0.007-2.109-0.328-4.006-1.007-5.692c-0.679-1.684-1.602-3.098-2.765-4.244
					c-1.166-1.144-2.488-2.032-3.969-2.665c-1.481-0.632-3.019-0.951-4.615-0.956c-1.597-0.006-3.138,0.303-4.623,0.924
					c-1.485,0.623-2.814,1.502-3.987,2.638c-1.173,1.138-2.104,2.545-2.795,4.224c-0.69,1.681-1.039,3.576-1.046,5.685
					c-0.007,2.111,0.328,4.008,1.007,5.692c0.679,1.685,1.6,3.1,2.765,4.244c1.165,1.146,2.487,2.033,3.968,2.665
					C603.226,86.163,604.764,86.48,606.361,86.486z"/>
				<path class="st0" d="M661.953,88.989l-0.513-0.002c-1.262,1.65-2.892,3.142-4.892,4.474c-2.001,1.332-4.54,1.994-7.619,1.984
					c-2.224-0.008-4.306-0.373-6.241-1.091c-1.937-0.719-3.616-1.723-5.037-3.011c-1.422-1.288-2.543-2.802-3.363-4.545
					c-0.821-1.742-1.228-3.668-1.22-5.778c0.008-2.224,0.457-4.218,1.348-5.984c0.889-1.764,2.12-3.242,3.694-4.435
					c1.572-1.192,3.442-2.111,5.612-2.76c2.169-0.647,4.508-0.968,7.018-0.959c2.793,0.01,5.131,0.289,7.011,0.837
					c1.88,0.549,3.304,1.052,4.272,1.511l0.006-1.625c0.004-1.254-0.263-2.424-0.801-3.509c-0.539-1.085-1.276-2.015-2.214-2.788
					c-0.938-0.774-2.005-1.376-3.201-1.808c-1.196-0.433-2.451-0.651-3.761-0.655c-2.111-0.007-4.008,0.401-5.693,1.221
					c-1.686,0.821-3.187,2.142-4.505,3.963l-7.51-4.988c2.004-2.73,4.492-4.788,7.463-6.175c2.969-1.386,6.337-2.074,10.1-2.06
					c6.216,0.022,11.015,1.578,14.398,4.669c3.381,3.091,5.063,7.489,5.044,13.191l-0.089,25.49l-9.323-0.032L661.953,88.989z
					 M661.996,76.671c-1.252-0.745-2.647-1.348-4.185-1.811c-1.539-0.462-3.306-0.696-5.302-0.703
					c-2.966-0.01-5.335,0.666-7.107,2.029c-1.773,1.362-2.662,3.013-2.669,4.952c-0.004,1.027,0.221,1.926,0.675,2.697
					c0.453,0.771,1.034,1.444,1.746,2.016c0.71,0.573,1.536,1.003,2.476,1.291c0.939,0.29,1.894,0.434,2.864,0.438
					c1.539,0.005,3.008-0.289,4.408-0.883c1.399-0.593,2.614-1.388,3.644-2.382c1.029-0.993,1.86-2.146,2.492-3.456
					C661.671,79.55,661.99,78.154,661.996,76.671z"/>
				<path class="st0" d="M711.481,88.904l-0.513-0.002c-1.148,1.822-2.892,3.399-5.234,4.73c-2.344,1.331-5.139,1.992-8.39,1.981
					c-2.681-0.009-5.231-0.574-7.65-1.695c-2.421-1.12-4.539-2.681-6.357-4.684c-1.819-2.002-3.265-4.36-4.338-7.072
					c-1.075-2.712-1.606-5.694-1.595-8.945c0.011-3.251,0.563-6.227,1.657-8.933c1.092-2.704,2.554-5.051,4.387-7.041
					c1.831-1.99,3.96-3.536,6.389-4.64c2.426-1.104,4.98-1.651,7.661-1.641c3.251,0.011,6.042,0.692,8.376,2.039
					c2.333,1.348,4.066,2.937,5.201,4.765l0.513,0.002l-0.493-5.819l0.066-18.904l9.494,0.033l-0.213,61.246l-8.981-0.031
					L711.481,88.904z M699.171,86.809c1.595,0.006,3.151-0.302,4.665-0.925c1.512-0.622,2.827-1.5,3.943-2.638
					c1.116-1.136,2.019-2.545,2.709-4.225c0.69-1.679,1.039-3.574,1.046-5.685c0.007-2.109-0.328-4.006-1.007-5.692
					c-0.679-1.684-1.572-3.098-2.68-4.244c-1.108-1.144-2.417-2.032-3.925-2.665c-1.51-0.632-3.063-0.951-4.659-0.957
					c-1.654-0.006-3.224,0.302-4.708,0.924c-1.486,0.623-2.785,1.516-3.901,2.681c-1.116,1.166-2.019,2.574-2.709,4.225
					c-0.69,1.652-1.039,3.533-1.046,5.642c-0.007,2.111,0.328,3.994,1.007,5.649c0.679,1.658,1.572,3.072,2.68,4.243
					c1.108,1.173,2.401,2.076,3.883,2.708C695.949,86.485,697.517,86.803,699.171,86.809z"/>
				<path class="st0" d="M768.495,51.209c3.193,0.011,6.128,0.577,8.805,1.699c2.676,1.121,4.979,2.683,6.913,4.686
					c1.931,2.004,3.434,4.375,4.509,7.115c1.073,2.741,1.605,5.708,1.594,8.902c-0.011,3.194-0.564,6.157-1.656,8.89
					c-1.094,2.734-2.613,5.096-4.558,7.085c-1.947,1.99-4.262,3.535-6.945,4.638c-2.685,1.103-5.623,1.648-8.816,1.637
					c-3.194-0.011-6.129-0.577-8.805-1.699c-2.677-1.121-4.981-2.682-6.913-4.686c-1.932-2.003-3.436-4.375-4.509-7.116
					c-1.075-2.741-1.606-5.708-1.595-8.902c0.011-3.193,0.563-6.157,1.657-8.89c1.092-2.733,2.612-5.094,4.558-7.084
					c1.945-1.989,4.26-3.535,6.945-4.638C762.362,51.744,765.301,51.198,768.495,51.209z M768.37,87.049
					c1.596,0.006,3.137-0.302,4.622-0.925c1.485-0.622,2.814-1.5,3.987-2.638c1.172-1.136,2.104-2.544,2.795-4.224
					c0.69-1.679,1.039-3.574,1.046-5.685c0.007-2.109-0.328-4.006-1.007-5.692c-0.679-1.684-1.602-3.098-2.765-4.244
					c-1.165-1.144-2.488-2.032-3.969-2.665c-1.481-0.632-3.019-0.951-4.615-0.956c-1.597-0.006-3.138,0.303-4.623,0.924
					c-1.485,0.623-2.814,1.502-3.987,2.638c-1.173,1.138-2.104,2.545-2.795,4.224c-0.69,1.681-1.039,3.576-1.046,5.685
					c-0.007,2.111,0.328,4.008,1.007,5.692c0.679,1.685,1.6,3.1,2.765,4.244c1.165,1.146,2.487,2.033,3.968,2.665
					C765.235,86.726,766.773,87.044,768.37,87.049z"/>
				<path class="st0" d="M805.679,58.352l0.514,0.002c1.26-1.991,3.049-3.653,5.364-4.985c2.314-1.331,4.926-1.993,7.833-1.983
					c5.304,0.019,9.261,1.614,11.874,4.788c2.611,3.174,3.909,7.384,3.89,12.631l-0.09,25.918l-9.494-0.033l0.086-24.635
					c0.013-3.649-0.821-6.204-2.497-7.664c-1.677-1.46-3.884-2.194-6.621-2.204c-1.654-0.006-3.11,0.331-4.366,1.011
					c-1.257,0.68-2.345,1.604-3.26,2.769c-0.917,1.166-1.606,2.505-2.066,4.013c-0.462,1.51-0.695,3.092-0.701,4.746l-0.076,21.898
					l-9.495-0.033l0.146-41.914l8.981,0.031L805.679,58.352z"/>
				<path class="st0" d="M867.856,61.306l-7.356-0.026l0.029-8.383l7.356,0.026l0.045-12.83l9.494,0.033l-0.045,12.83l10.35,0.036
					l-0.029,8.383l-10.35-0.036l-0.067,19.153c-0.004,1.056,0.107,2.022,0.332,2.902c0.224,0.88,0.564,1.612,1.019,2.2
					c0.965,1.116,2.189,1.676,3.672,1.682c0.912,0.003,1.625-0.065,2.139-0.206c0.513-0.139,1.056-0.352,1.627-0.636l2.879,8.393
					c-1.199,0.451-2.455,0.803-3.767,1.056c-1.313,0.252-2.797,0.376-4.449,0.37c-1.997-0.007-3.762-0.334-5.301-0.979
					c-1.537-0.644-2.874-1.522-4.011-2.631c-2.443-2.511-3.657-5.918-3.642-10.222L867.856,61.306z"/>
				<path class="st0" d="M896.092,33.689l9.495,0.033l-0.063,18.219l-0.537,6.756L905.5,58.7c1.204-1.992,2.977-3.653,5.32-4.986
					c2.343-1.331,4.939-1.993,7.791-1.983c2.738,0.009,5.101,0.432,7.095,1.264c1.993,0.835,3.643,2.023,4.949,3.568
					c1.306,1.544,2.268,3.386,2.889,5.527c0.62,2.141,0.925,4.494,0.916,7.06l-0.09,25.918l-9.494-0.033l0.086-24.635
					c0.012-3.478-0.822-5.99-2.498-7.536c-1.677-1.545-3.799-2.322-6.364-2.331c-1.655-0.006-3.123,0.346-4.409,1.053
					c-1.285,0.709-2.4,1.66-3.346,2.854c-0.945,1.194-1.663,2.56-2.153,4.098c-0.49,1.538-0.738,3.135-0.743,4.788l-0.075,21.641
					l-9.495-0.033L896.092,33.689z"/>
				<path class="st0" d="M982.479,85.228c-1.779,3.244-4.297,5.945-7.555,8.1c-3.258,2.155-7.255,3.226-11.987,3.209
					c-3.137-0.011-6.028-0.577-8.676-1.698c-2.648-1.121-4.938-2.682-6.87-4.686c-1.932-2.003-3.436-4.36-4.509-7.073
					c-1.075-2.712-1.606-5.694-1.595-8.945c0.011-3.022,0.534-5.885,1.57-8.591c1.035-2.704,2.483-5.066,4.344-7.084
					c1.859-2.017,4.104-3.621,6.732-4.81c2.626-1.188,5.537-1.776,8.731-1.765c3.251,0.011,6.143,0.564,8.677,1.655
					c2.534,1.093,4.682,2.612,6.442,4.556c1.76,1.945,3.107,4.288,4.039,7.028c0.931,2.741,1.391,5.736,1.38,8.987
					c-0.001,0.286-0.002,0.543-0.003,0.77c-0.058,0.285-0.087,0.542-0.088,0.77c-0.058,0.228-0.087,0.457-0.088,0.684l-32.249-0.112
					c0.165,1.997,0.642,3.738,1.436,5.223c0.793,1.487,1.773,2.715,2.939,3.688c1.164,0.974,2.46,1.691,3.885,2.152
					c1.423,0.462,2.82,0.694,4.189,0.699c2.738,0.009,4.992-0.638,6.764-1.945c1.772-1.305,3.232-2.925,4.38-4.86L982.479,85.228z
					 M973.725,69.03c-0.112-0.855-0.378-1.811-0.802-2.868c-0.424-1.056-1.077-2.027-1.958-2.915
					c-0.882-0.887-2.019-1.645-3.413-2.279c-1.395-0.632-3.091-0.951-5.086-0.958c-2.738-0.01-5.093,0.794-7.066,2.413
					c-1.973,1.618-3.306,3.795-4,6.53L973.725,69.03z"/>
			</g>
		</g>
		<g>
			<path class="st1" d="M391.958,150.429l21.128,0.074L456.4,267.02l-20.316-0.071l-10.46-29.941l-46.806-0.163l-10.668,29.868
				l-20.316-0.071L391.958,150.429z M419.507,220.247l-12.07-34.335l-4.503-13.667l-0.976-0.003l-4.598,13.635l-12.309,34.251
				L419.507,220.247z"/>
			<path class="st1" d="M467.887,187.423l17.064,0.059l-0.036,10.239l0.975,0.003c2.179-3.459,5.493-6.453,9.945-8.985
				c4.451-2.529,9.765-3.785,15.94-3.764c5.092,0.018,9.936,1.091,14.535,3.219c4.597,2.129,8.621,5.096,12.077,8.899
				c3.453,3.806,6.2,8.285,8.242,13.437c2.039,5.155,3.051,10.818,3.029,16.994c-0.021,6.176-1.072,11.835-3.147,16.973
				c-2.077,5.14-4.856,9.6-8.335,13.38c-3.482,3.781-7.527,6.719-12.139,8.815c-4.613,2.097-9.465,3.136-14.557,3.118
				c-6.175-0.021-11.481-1.314-15.914-3.875c-4.435-2.56-7.728-5.578-9.882-9.054l-0.975-0.003l0.937,11.055l-0.119,34.292
				l-18.04-0.063L467.887,187.423z M508.127,253.06c3.031,0.011,5.987-0.573,8.864-1.757c2.874-1.181,5.373-2.879,7.494-5.094
				c2.12-2.212,3.836-4.887,5.148-8.027c1.311-3.137,1.973-6.71,1.987-10.72c0.014-4.007-0.624-7.585-1.913-10.733
				c-1.29-3.145-2.987-5.833-5.092-8.063c-2.105-2.226-4.592-3.941-7.458-5.145c-2.868-1.201-5.82-1.808-8.851-1.818
				c-3.144-0.011-6.125,0.575-8.945,1.756c-2.823,1.184-5.292,2.853-7.413,5.012c-2.12,2.161-3.836,4.837-5.147,8.027
				c-1.312,3.192-1.975,6.794-1.988,10.8c-0.014,4.01,0.624,7.616,1.913,10.814c1.289,3.202,2.986,5.889,5.091,8.063
				c2.105,2.176,4.563,3.863,7.377,5.064C502.006,252.445,504.983,253.049,508.127,253.06z"/>
			<path class="st1" d="M561.175,187.747l17.064,0.059l-0.036,10.239l0.975,0.003c2.179-3.459,5.493-6.453,9.945-8.985
				c4.451-2.529,9.765-3.785,15.94-3.764c5.092,0.018,9.936,1.091,14.535,3.219c4.597,2.129,8.621,5.096,12.077,8.899
				c3.453,3.806,6.2,8.285,8.242,13.437c2.039,5.155,3.051,10.818,3.029,16.994c-0.021,6.176-1.072,11.835-3.147,16.973
				c-2.077,5.141-4.856,9.6-8.335,13.38c-3.482,3.781-7.527,6.718-12.139,8.815c-4.613,2.097-9.465,3.136-14.557,3.118
				c-6.175-0.021-11.481-1.314-15.914-3.874c-4.435-2.56-7.728-5.578-9.882-9.054l-0.976-0.003l0.937,11.055l-0.119,34.292
				l-18.04-0.063L561.175,187.747z M601.416,253.384c3.031,0.011,5.987-0.573,8.863-1.757c2.874-1.181,5.373-2.879,7.494-5.094
				c2.12-2.212,3.836-4.887,5.148-8.027c1.311-3.137,1.973-6.71,1.987-10.72c0.014-4.007-0.624-7.585-1.913-10.733
				c-1.29-3.146-2.987-5.834-5.092-8.063c-2.105-2.226-4.592-3.941-7.458-5.145c-2.868-1.201-5.82-1.808-8.851-1.818
				c-3.144-0.011-6.125,0.575-8.945,1.756c-2.823,1.184-5.292,2.853-7.412,5.012c-2.12,2.161-3.836,4.837-5.147,8.028
				c-1.312,3.192-1.975,6.794-1.989,10.8c-0.014,4.01,0.624,7.616,1.913,10.814c1.289,3.202,2.986,5.889,5.091,8.063
				c2.105,2.176,4.563,3.863,7.377,5.064C595.295,252.769,598.272,253.373,601.416,253.384z"/>
			<path class="st1" d="M724.221,270.551c-4.66-0.016-9.18-0.71-13.564-2.079c-4.383-1.369-8.44-3.414-12.168-6.137
				c-3.729-2.72-6.996-6.091-9.798-10.11c-2.805-4.017-4.955-8.684-6.452-14l17.577-7.09c0.746,3.037,1.849,5.885,3.302,8.544
				c1.454,2.661,3.233,4.969,5.339,6.926c2.106,1.957,4.482,3.51,7.135,4.657c2.65,1.146,5.602,1.726,8.852,1.737
				c2.706,0.009,5.308-0.333,7.805-1.029c2.493-0.696,4.663-1.744,6.511-3.147c1.846-1.4,3.343-3.129,4.488-5.185
				c1.145-2.053,1.722-4.436,1.731-7.145c0.008-2.382-0.418-4.552-1.278-6.506c-0.861-1.953-2.208-3.745-4.044-5.377
				c-1.838-1.631-4.271-3.184-7.297-4.657c-3.03-1.474-6.653-2.975-10.873-4.507l-7.304-2.626c-3.14-1.093-6.358-2.542-9.655-4.341
				c-3.3-1.8-6.272-3.976-8.916-6.532c-2.647-2.554-4.803-5.568-6.469-9.043c-1.669-3.472-2.493-7.538-2.477-12.197
				c0.015-4.332,0.923-8.42,2.724-12.261c1.802-3.839,4.332-7.217,7.593-10.132c3.261-2.914,7.141-5.201,11.644-6.867
				c4.5-1.663,9.461-2.486,14.88-2.467c5.633,0.02,10.586,0.824,14.863,2.408c4.274,1.587,7.87,3.578,10.788,5.97
				c2.916,2.394,5.264,5.03,7.042,7.906c1.778,2.879,3.094,5.565,3.954,8.059l-16.601,6.93c-0.538-1.627-1.317-3.28-2.34-4.965
				c-1.025-1.681-2.346-3.177-3.966-4.483c-1.62-1.305-3.542-2.393-5.758-3.27c-2.219-0.874-4.79-1.317-7.716-1.327
				c-2.6-0.009-5.039,0.335-7.317,1.031c-2.278,0.698-4.26,1.692-5.942,2.987c-1.686,1.294-3.017,2.808-3.998,4.536
				c-0.982,1.731-1.476,3.626-1.483,5.683c-0.014,4.118,1.681,7.457,5.085,10.013c3.403,2.558,8.405,4.986,15.007,7.284l7.305,2.626
				c4.545,1.535,8.708,3.337,12.495,5.407c3.784,2.073,7.079,4.55,9.888,7.43c2.807,2.882,4.989,6.221,6.547,10.018
				c1.557,3.799,2.328,8.19,2.311,13.172c-0.021,6.069-1.258,11.238-3.711,15.508c-2.453,4.272-5.581,7.81-9.382,10.612
				c-3.804,2.805-8.036,4.848-12.698,6.132C733.216,269.932,728.662,270.567,724.221,270.551z"/>
			<path class="st1" d="M783.935,204.449l-13.976-0.049l0.055-15.927l13.976,0.049l0.085-24.378l18.041,0.063l-0.085,24.378
				l19.665,0.068l-0.055,15.927l-19.665-0.068l-0.127,36.389c-0.007,2.007,0.202,3.843,0.63,5.513
				c0.426,1.673,1.072,3.064,1.936,4.179c1.833,2.122,4.159,3.186,6.977,3.196c1.732,0.006,3.089-0.123,4.064-0.392
				c0.976-0.266,2.006-0.668,3.092-1.208l5.47,15.946c-2.278,0.858-4.665,1.528-7.158,2.007c-2.495,0.479-5.313,0.713-8.454,0.702
				c-3.794-0.013-7.148-0.634-10.07-1.858c-2.921-1.224-5.463-2.891-7.621-4.998c-4.643-4.77-6.95-11.244-6.922-19.42
				L783.935,204.449z"/>
			<path class="st1" d="M872.9,186.231c6.066,0.021,11.642,1.097,16.728,3.227c5.085,2.13,9.462,5.099,13.133,8.903
				c3.669,3.807,6.526,8.312,8.567,13.519c2.039,5.208,3.05,10.847,3.029,16.913c-0.021,6.069-1.072,11.698-3.147,16.892
				c-2.078,5.193-4.965,9.681-8.661,13.459c-3.698,3.78-8.096,6.717-13.195,8.811c-5.101,2.095-10.684,3.132-16.75,3.111
				c-6.069-0.021-11.645-1.097-16.729-3.227c-5.086-2.13-9.465-5.097-13.133-8.903c-3.671-3.804-6.528-8.311-8.567-13.519
				c-2.042-5.208-3.05-10.844-3.029-16.913c0.021-6.066,1.069-11.698,3.147-16.892c2.075-5.193,4.963-9.678,8.661-13.459
				c3.695-3.779,8.094-6.717,13.195-8.812C861.247,187.247,866.83,186.21,872.9,186.231z M872.663,254.327
				c3.031,0.011,5.959-0.573,8.782-1.757c2.821-1.181,5.345-2.851,7.575-5.012c2.227-2.159,3.999-4.834,5.31-8.027
				c1.311-3.19,1.974-6.791,1.988-10.801c0.014-4.007-0.624-7.613-1.912-10.814c-1.289-3.199-3.043-5.888-5.254-8.064
				c-2.215-2.174-4.727-3.861-7.54-5.064c-2.814-1.201-5.738-1.807-8.769-1.818c-3.035-0.011-5.963,0.576-8.783,1.757
				c-2.823,1.184-5.348,2.853-7.575,5.012c-2.229,2.161-3.999,4.836-5.309,8.027c-1.312,3.192-1.974,6.794-1.988,10.801
				c-0.014,4.01,0.623,7.615,1.913,10.814c1.289,3.202,3.04,5.889,5.253,8.064c2.212,2.176,4.726,3.864,7.54,5.064
				C866.704,253.713,869.628,254.317,872.663,254.327z"/>
			<path class="st1" d="M926.523,189.018l17.064,0.059l-0.042,12.026l0.975,0.003c0.982-2.054,2.314-3.974,4.002-5.755
				c1.685-1.782,3.586-3.294,5.704-4.541c2.117-1.247,4.34-2.267,6.674-3.064c2.332-0.798,4.581-1.193,6.749-1.186
				c2.6,0.009,4.819,0.263,6.661,0.76c1.839,0.499,3.515,1.18,5.031,2.044l-5.258,16.397c-1.192-0.546-2.516-0.956-3.978-1.233
				c-1.462-0.275-3.224-0.418-5.281-0.425c-2.925-0.01-5.609,0.581-8.051,1.77c-2.442,1.19-4.589,2.815-6.437,4.877
				c-1.851,2.063-3.294,4.508-4.333,7.336c-1.041,2.828-1.564,5.82-1.575,8.979l-0.145,41.651l-18.04-0.063L926.523,189.018z"/>
			<path class="st1" d="M1057.792,250.096c-3.381,6.165-8.166,11.295-14.356,15.39c-6.189,4.095-13.782,6.128-22.774,6.097
				c-5.961-0.021-11.454-1.096-16.486-3.226c-5.031-2.13-9.383-5.097-13.052-8.903c-3.671-3.804-6.528-8.284-8.567-13.438
				c-2.042-5.152-3.05-10.818-3.029-16.994c0.02-5.741,1.014-11.183,2.982-16.323c1.968-5.138,4.719-9.626,8.255-13.461
				c3.533-3.833,7.797-6.88,12.789-9.138c4.99-2.259,10.52-3.377,16.589-3.355c6.176,0.021,11.671,1.072,16.485,3.145
				c4.813,2.076,8.894,4.962,12.24,8.656c3.345,3.697,5.905,8.147,7.674,13.354c1.769,5.208,2.643,10.898,2.622,17.074
				c-0.002,0.543-0.004,1.031-0.005,1.463c-0.111,0.543-0.166,1.03-0.168,1.462c-0.11,0.433-0.165,0.868-0.166,1.299l-61.271-0.213
				c0.311,3.795,1.219,7.102,2.728,9.924c1.506,2.824,3.367,5.159,5.583,7.008c2.213,1.852,4.674,3.214,7.381,4.089
				c2.703,0.878,5.359,1.318,7.959,1.327c5.201,0.018,9.483-1.211,12.852-3.693c3.365-2.48,6.139-5.558,8.321-9.235
				L1057.792,250.096z M1041.159,219.321c-0.213-1.626-0.719-3.441-1.525-5.45c-0.805-2.006-2.046-3.852-3.718-5.539
				c-1.676-1.684-3.837-3.126-6.486-4.329c-2.652-1.2-5.873-1.808-9.664-1.821c-5.201-0.018-9.676,1.51-13.424,4.586
				c-3.749,3.075-6.282,7.211-7.601,12.407L1041.159,219.321z"/>
		</g>
	</g>
	<g>
		<path id="XMLID_10_" class="st1" d="M178.515,69.33c9.787-12.011,16.446-28.736,14.699-45.381
			c-14.049,0.517-31.121,9.398-41.26,21.379c-9.067,10.665-17.036,27.62-14.983,43.998C152.672,90.628,168.706,81.311,178.515,69.33
			z"/>
		<path id="XMLID_9_" class="st1" d="M213.355,175.213c-0.077-11.401,2.808-20.902,6.823-28.606
			c8.685-16.677,22.656-24.904,23.559-25.5c-16.362-24.498-41.94-27.955-51.051-28.363c-21.77-2.32-42.512,12.897-53.556,12.859
			c-11.031-0.038-28.046-12.829-46.096-12.552c-23.735,0.277-45.667,13.888-57.967,35.489c-3.82,6.693-6.624,13.894-8.541,21.426
			c-10.528,41.246,5.549,92.075,25.766,122.023c11.689,17.325,25.612,36.801,44,36.162c17.724-0.65,24.442-11.575,45.852-11.501
			c21.417,0.075,27.4,11.756,46.125,11.461c19.027-0.286,31.183-17.49,42.89-34.809c13.55-20.001,19.176-39.415,19.515-40.406
			C250.242,232.693,213.584,218.259,213.355,175.213z"/>
	</g>
</g>
</svg>
