<?xml version="1.0" encoding="utf-8"?>
<!-- Generator: Adobe Illustrator 27.5.0, SVG Export Plug-In . SVG Version: 6.00 Build 0)  -->
<svg version="1.1" id="katman_1" xmlns="http://www.w3.org/2000/svg" xmlns:xlink="http://www.w3.org/1999/xlink" x="0px" y="0px"
	 viewBox="0 0 1254.844 334.305" style="enable-background:new 0 0 1254.844 334.305;" xml:space="preserve">
<style type="text/css">
	.st0{fill:#808386;}
	.st1{fill:#0F0F0F;}
	.st2{fill:#3FC0F0;}
	.st3{fill:#E8384D;}
	.st4{fill:#64B664;}
	.st5{fill:#FEC707;}
</style>
<g>
	<g>
		<g>
			<path class="st0" d="M407.469,60.401l29.853,0.104c0.111,0.742,0.222,1.527,0.334,2.354c0.111,0.828,0.166,1.698,0.163,2.609
				c-0.013,3.65-0.597,7.269-1.749,10.858c-1.154,3.589-3.103,6.776-5.85,9.56c-2.804,2.899-6.091,5.141-9.86,6.723
				c-3.77,1.583-8.079,2.368-12.925,2.351c-4.392-0.015-8.538-0.829-12.438-2.439c-3.901-1.609-7.3-3.845-10.198-6.707
				c-2.898-2.861-5.183-6.247-6.85-10.16c-1.669-3.911-2.495-8.178-2.479-12.797c0.016-4.62,0.872-8.879,2.568-12.779
				c1.695-3.9,4.003-7.271,6.921-10.112c2.918-2.841,6.333-5.053,10.245-6.636c3.911-1.583,8.063-2.368,12.455-2.352
				c4.675,0.016,8.992,0.858,12.95,2.526c3.957,1.668,7.271,3.989,9.942,6.964l-6.782,6.734c-1.989-2.231-4.335-3.95-7.038-5.157
				c-2.705-1.207-5.768-1.817-9.19-1.828c-2.908-0.01-5.705,0.523-8.388,1.597c-2.685,1.074-5.056,2.591-7.116,4.552
				c-2.059,1.96-3.693,4.336-4.9,7.125c-1.207,2.791-1.817,5.925-1.829,9.403c-0.012,3.479,0.576,6.618,1.764,9.415
				c1.188,2.799,2.805,5.185,4.851,7.16c2.046,1.975,4.407,3.509,7.084,4.601c2.676,1.093,5.497,1.645,8.463,1.655
				c3.934,0.014,7.115-0.574,9.544-1.763c2.427-1.189,4.47-2.579,6.13-4.171c1.201-1.136,2.261-2.629,3.181-4.479
				c0.917-1.85,1.523-3.887,1.817-6.11l-20.7-0.072L407.469,60.401z"/>
			<path class="st0" d="M457.148,41.755l-0.059,16.851l24.891,0.087l-0.032,9.067l-24.891-0.087l-0.059,16.851l27.629,0.096
				l-0.032,9.238l-37.295-0.13l0.213-61.246l37.295,0.13l-0.032,9.238L457.148,41.755z"/>
			<path class="st0" d="M508.205,93.94l0.181-52.008l-17.107-0.059l0.032-9.238l43.881,0.153l-0.032,9.238l-17.108-0.06
				l-0.181,52.008L508.205,93.94z"/>
			<path class="st0" d="M562.22,32.882l9.666,0.034l-0.213,61.246l-9.666-0.034L562.22,32.882z"/>
			<path class="st0" d="M596.99,94.249l0.181-52.008l-17.107-0.059l0.032-9.238l43.881,0.153l-0.032,9.238l-17.108-0.06
				l-0.181,52.008L596.99,94.249z"/>
			<path class="st0" d="M677.818,95.899c-4.563-0.016-8.766-0.858-12.609-2.525c-3.844-1.667-7.186-3.945-10.027-6.835
				c-2.842-2.889-5.054-6.29-6.637-10.203c-1.583-3.911-2.367-8.091-2.351-12.539c0.015-4.448,0.828-8.607,2.438-12.48
				c1.61-3.872,3.845-7.258,6.707-10.156c2.861-2.898,6.219-5.167,10.075-6.808c3.855-1.64,8.063-2.453,12.626-2.437
				c4.504,0.016,8.693,0.858,12.565,2.525c3.871,1.668,7.228,3.96,10.069,6.878c2.841,2.918,5.053,6.319,6.637,10.203
				c1.583,3.884,2.367,8.049,2.352,12.497c-0.016,4.448-0.829,8.623-2.439,12.523c-1.611,3.902-3.846,7.287-6.707,10.156
				c-2.862,2.871-6.234,5.125-10.117,6.765C686.517,95.102,682.322,95.915,677.818,95.899z M677.851,86.661
				c3.022,0.01,5.874-0.521,8.559-1.596c2.683-1.073,5.013-2.604,6.987-4.594c1.975-1.989,3.536-4.378,4.687-7.17
				c1.151-2.789,1.732-5.896,1.743-9.317c0.012-3.421-0.548-6.531-1.679-9.329c-1.131-2.797-2.676-5.198-4.637-7.202
				c-1.96-2.002-4.279-3.55-6.955-4.643c-2.677-1.092-5.526-1.645-8.548-1.655c-3.023-0.01-5.876,0.522-8.56,1.596
				c-2.684,1.074-5.013,2.606-6.987,4.594c-1.974,1.99-3.537,4.38-4.687,7.17c-1.151,2.79-1.732,5.896-1.743,9.317
				s0.547,6.532,1.679,9.329c1.13,2.799,2.677,5.199,4.637,7.202c1.96,2.004,4.279,3.551,6.955,4.643
				C671.978,86.099,674.827,86.65,677.851,86.661z"/>
			<path class="st0" d="M719.094,33.427l11.547,0.04l27.047,44.489l0.513,0.002l-0.472-11.806l0.113-32.59l9.58,0.033l-0.213,61.246
				l-10.094-0.035l-28.407-46.718l-0.513-0.002l0.472,11.806l-0.121,34.814l-9.666-0.034L719.094,33.427z"/>
		</g>
	</g>
	<g>
		<path class="st1" d="M435.771,201.642l56.72,0.197c0.211,1.41,0.421,2.901,0.634,4.471c0.211,1.574,0.314,3.227,0.308,4.958
			c-0.024,6.935-1.132,13.811-3.322,20.629c-2.192,6.819-5.895,12.875-11.114,18.165c-5.33,5.506-11.574,9.767-18.735,12.774
			c-7.162,3.007-15.349,4.497-24.557,4.465c-8.345-0.029-16.222-1.575-23.632-4.633c-7.412-3.058-13.87-7.306-19.377-12.745
			c-5.507-5.435-9.847-11.87-13.016-19.304c-3.171-7.431-4.74-15.537-4.709-24.313c0.031-8.777,1.656-16.869,4.878-24.281
			c3.221-7.409,7.606-13.813,13.15-19.213c5.545-5.397,12.032-9.601,19.465-12.609c7.431-3.007,15.319-4.497,23.663-4.468
			c8.882,0.031,17.085,1.631,24.605,4.799c7.519,3.17,13.813,7.58,18.888,13.23l-12.885,12.794
			c-3.778-4.238-8.237-7.505-13.374-9.798c-5.14-2.293-10.959-3.451-17.459-3.474c-5.526-0.019-10.84,0.993-15.938,3.033
			c-5.101,2.042-9.607,4.924-13.52,8.648c-3.914,3.725-7.017,8.239-9.311,13.539c-2.294,5.301-3.451,11.258-3.474,17.865
			c-0.023,6.61,1.093,12.573,3.35,17.889c2.258,5.318,5.329,9.851,9.217,13.603c3.887,3.751,8.372,6.667,13.459,8.742
			c5.084,2.077,10.444,3.125,16.079,3.144c7.476,0.026,13.518-1.091,18.133-3.35c4.611-2.259,8.494-4.9,11.648-7.923
			c2.283-2.159,4.296-4.995,6.042-8.511c1.745-3.514,2.896-7.385,3.454-11.609l-39.33-0.137L435.771,201.642z"/>
		<path class="st1" d="M545.379,182.846c6.066,0.021,11.642,1.097,16.728,3.227c5.085,2.13,9.462,5.099,13.133,8.903
			c3.669,3.807,6.525,8.312,8.567,13.519c2.039,5.208,3.05,10.847,3.029,16.913c-0.021,6.069-1.072,11.698-3.147,16.892
			c-2.078,5.193-4.965,9.681-8.661,13.459c-3.698,3.78-8.096,6.717-13.195,8.811c-5.101,2.095-10.684,3.132-16.75,3.111
			c-6.069-0.021-11.645-1.097-16.729-3.227c-5.087-2.13-9.465-5.097-13.134-8.903c-3.671-3.804-6.528-8.312-8.567-13.519
			c-2.041-5.208-3.05-10.844-3.029-16.913c0.021-6.066,1.069-11.698,3.147-16.892c2.075-5.193,4.963-9.678,8.661-13.459
			c3.695-3.779,8.094-6.717,13.195-8.812C533.727,183.861,539.31,182.825,545.379,182.846z M545.142,250.942
			c3.031,0.011,5.959-0.573,8.782-1.757c2.821-1.181,5.345-2.851,7.575-5.012c2.227-2.159,3.999-4.834,5.31-8.027
			c1.311-3.19,1.974-6.791,1.988-10.801c0.014-4.007-0.624-7.613-1.912-10.814c-1.29-3.199-3.043-5.888-5.254-8.064
			c-2.215-2.174-4.727-3.861-7.54-5.064c-2.814-1.201-5.738-1.807-8.769-1.818c-3.035-0.01-5.963,0.576-8.783,1.757
			c-2.823,1.184-5.348,2.853-7.575,5.012c-2.229,2.161-3.999,4.837-5.31,8.027c-1.312,3.192-1.974,6.794-1.988,10.801
			c-0.014,4.01,0.623,7.615,1.913,10.814c1.289,3.202,3.04,5.889,5.253,8.064c2.212,2.176,4.726,3.864,7.54,5.064
			C539.184,250.328,542.107,250.931,545.142,250.942z"/>
		<path class="st1" d="M637.69,183.167c6.067,0.021,11.642,1.097,16.728,3.227c5.085,2.13,9.462,5.099,13.133,8.903
			c3.669,3.807,6.526,8.312,8.567,13.519c2.039,5.208,3.05,10.847,3.029,16.913c-0.021,6.069-1.072,11.698-3.147,16.892
			c-2.078,5.193-4.965,9.681-8.661,13.459c-3.698,3.78-8.096,6.717-13.195,8.811c-5.101,2.095-10.684,3.132-16.75,3.111
			c-6.069-0.021-11.645-1.097-16.729-3.227c-5.086-2.13-9.465-5.097-13.133-8.903c-3.671-3.804-6.528-8.311-8.567-13.519
			c-2.042-5.208-3.05-10.844-3.029-16.913c0.021-6.066,1.069-11.698,3.147-16.892c2.075-5.193,4.963-9.678,8.661-13.46
			c3.695-3.779,8.094-6.717,13.195-8.812C626.038,184.182,631.621,183.146,637.69,183.167z M637.454,251.263
			c3.031,0.01,5.959-0.573,8.782-1.757c2.821-1.181,5.345-2.851,7.575-5.012c2.227-2.159,3.999-4.834,5.31-8.027
			c1.311-3.189,1.974-6.791,1.988-10.8c0.014-4.007-0.624-7.613-1.913-10.814c-1.289-3.2-3.042-5.888-5.254-8.064
			c-2.215-2.174-4.727-3.861-7.54-5.064c-2.814-1.201-5.738-1.807-8.769-1.818c-3.035-0.011-5.963,0.576-8.783,1.757
			c-2.823,1.184-5.348,2.853-7.575,5.012c-2.229,2.161-3.999,4.837-5.309,8.027c-1.312,3.192-1.974,6.794-1.988,10.801
			c-0.014,4.01,0.623,7.616,1.912,10.814c1.289,3.202,3.04,5.889,5.254,8.064c2.212,2.176,4.726,3.864,7.54,5.064
			C631.495,250.649,634.418,251.252,637.454,251.263z"/>
		<path class="st1" d="M728.609,303.426c-5.526-0.019-10.427-0.767-14.701-2.246c-4.277-1.477-7.98-3.359-11.113-5.645
			c-3.136-2.286-5.699-4.842-7.694-7.665c-1.996-2.827-3.475-5.538-4.441-8.142l17.252-6.929c1.501,4.231,4.09,7.679,7.765,10.348
			c3.673,2.666,8.003,4.01,12.988,4.027c7.476,0.026,13.307-2.135,17.494-6.484c4.185-4.348,6.293-10.448,6.321-18.3l0.023-6.5
			l-0.975-0.003c-2.506,3.566-5.955,6.535-10.351,8.902c-4.396,2.367-9.52,3.543-15.371,3.522
			c-4.876-0.017-9.585-1.074-14.129-3.168c-4.543-2.092-8.571-5.007-12.078-8.74c-3.509-3.73-6.284-8.224-8.323-13.482
			c-2.041-5.259-3.05-11.004-3.028-17.241c0.022-6.236,1.07-11.949,3.148-17.137c2.075-5.189,4.881-9.635,8.416-13.344
			c3.533-3.705,7.581-6.592,12.138-8.655c4.559-2.062,9.275-3.086,14.151-3.069c5.851,0.02,10.967,1.232,15.346,3.629
			c4.379,2.399,7.807,5.391,10.288,8.974l0.976,0.003l0.034-9.914l17.39,0.061l-0.261,75.085c-0.024,6.826-1.102,12.861-3.233,18.11
			c-2.131,5.247-5.018,9.653-8.659,13.216c-3.644,3.563-7.985,6.254-13.031,8.081C739.907,302.543,734.46,303.446,728.609,303.426z
			 M729.44,251.583c2.925,0.01,5.796-0.528,8.62-1.62c2.82-1.092,5.291-2.735,7.411-4.929c2.12-2.194,3.836-4.886,5.148-8.073
			c1.311-3.187,1.974-6.872,1.989-11.057c0.014-4.072-0.623-7.734-1.912-10.986c-1.289-3.25-2.987-5.953-5.092-8.109
			c-2.105-2.153-4.565-3.812-7.377-4.979c-2.815-1.166-5.682-1.754-8.608-1.764c-3.035-0.011-5.934,0.558-8.701,1.704
			c-2.767,1.148-5.239,2.818-7.412,5.012c-2.177,2.194-3.918,4.884-5.229,8.072c-1.312,3.188-1.974,6.817-1.988,10.889
			c-0.014,4.073,0.623,7.71,1.912,10.907c1.289,3.196,3.011,5.899,5.172,8.108c2.158,2.209,4.619,3.896,7.378,5.061
			C723.51,250.987,726.405,251.572,729.44,251.583z"/>
		<path class="st1" d="M788.06,265.927l0.405-116.365l18.04,0.063L806.1,265.989L788.06,265.927z"/>
		<path class="st1" d="M897.341,247.291c-3.381,6.164-8.165,11.295-14.356,15.39c-6.19,4.095-13.782,6.128-22.774,6.097
			c-5.961-0.021-11.454-1.096-16.486-3.226c-5.031-2.13-9.383-5.097-13.052-8.903c-3.671-3.804-6.528-8.284-8.567-13.438
			c-2.042-5.152-3.05-10.818-3.029-16.994c0.02-5.741,1.014-11.183,2.982-16.323c1.968-5.138,4.719-9.626,8.255-13.461
			c3.533-3.833,7.797-6.88,12.789-9.138c4.99-2.259,10.52-3.377,16.589-3.356c6.176,0.021,11.671,1.072,16.485,3.145
			c4.813,2.076,8.894,4.962,12.241,8.656c3.345,3.697,5.904,8.147,7.674,13.354c1.769,5.208,2.643,10.898,2.622,17.075
			c-0.002,0.543-0.004,1.031-0.005,1.463c-0.11,0.543-0.166,1.03-0.168,1.462c-0.11,0.434-0.165,0.868-0.166,1.299l-61.271-0.213
			c0.311,3.795,1.219,7.102,2.728,9.924c1.506,2.824,3.367,5.158,5.583,7.008c2.213,1.852,4.674,3.214,7.381,4.089
			c2.703,0.878,5.359,1.318,7.959,1.327c5.201,0.018,9.483-1.211,12.852-3.693c3.365-2.48,6.139-5.558,8.321-9.235L897.341,247.291z
			 M880.708,216.517c-0.213-1.627-0.719-3.441-1.525-5.45c-0.805-2.006-2.046-3.852-3.718-5.539
			c-1.676-1.684-3.837-3.127-6.486-4.329c-2.652-1.2-5.873-1.808-9.664-1.821c-5.201-0.018-9.675,1.51-13.424,4.585
			c-3.749,3.075-6.282,7.211-7.601,12.407L880.708,216.517z"/>
		<path class="st1" d="M950.578,266.492l0.405-116.365l40.305,0.14c5.202,0.018,10.099,0.904,14.699,2.651
			c4.598,1.751,8.625,4.202,12.083,7.355c3.455,3.156,6.177,6.929,8.169,11.324c1.988,4.396,2.974,9.249,2.956,14.556
			c-0.018,5.201-1.038,9.992-3.056,14.373c-2.022,4.382-4.77,8.137-8.247,11.267c-3.48,3.132-7.523,5.555-12.133,7.271
			c-4.612,1.718-9.516,2.567-14.717,2.549l-21.94-0.076l-0.156,45.018L950.578,266.492z M991.588,204.062
			c3.032,0.011,5.744-0.493,8.132-1.515c2.386-1.02,4.397-2.395,6.028-4.124c1.631-1.726,2.883-3.673,3.759-5.838
			c0.873-2.163,1.315-4.328,1.322-6.497c0.008-2.275-0.418-4.496-1.277-6.667c-0.861-2.169-2.099-4.096-3.718-5.783
			c-1.619-1.684-3.621-3.072-5.999-4.165c-2.38-1.09-5.088-1.643-8.12-1.653l-22.427-0.078l-0.126,36.242L991.588,204.062z"/>
		<path class="st1" d="M1042.724,266.812l0.405-116.365l18.04,0.063l-0.405,116.365L1042.724,266.812z"/>
		<path class="st1" d="M1128.57,257.36l-0.975-0.003c-2.396,3.135-5.494,5.969-9.293,8.5c-3.803,2.531-8.627,3.789-14.478,3.769
			c-4.225-0.015-8.18-0.707-11.857-2.073c-3.68-1.366-6.87-3.274-9.569-5.722c-2.701-2.447-4.832-5.323-6.39-8.635
			c-1.56-3.309-2.333-6.969-2.319-10.979c0.015-4.225,0.866-8.014,2.559-11.367c1.69-3.352,4.028-6.162,7.017-8.427
			c2.986-2.265,6.541-4.013,10.664-5.245c4.121-1.23,8.564-1.839,13.333-1.823c5.308,0.019,9.749,0.549,13.322,1.59
			c3.571,1.044,6.275,2.001,8.116,2.873l0.011-3.088c0.008-2.382-0.5-4.606-1.521-6.669c-1.024-2.061-2.424-3.828-4.208-5.296
			c-1.782-1.469-3.81-2.614-6.083-3.434c-2.272-0.821-4.656-1.235-7.146-1.244c-4.01-0.014-7.616,0.761-10.816,2.319
			c-3.202,1.561-6.055,4.069-8.558,7.527l-14.269-9.476c3.809-5.188,8.537-9.097,14.181-11.734
			c5.642-2.635,12.041-3.94,19.192-3.915c11.808,0.041,20.927,2.998,27.354,8.872c6.425,5.872,9.621,14.228,9.583,25.061
			l-0.168,48.432l-17.715-0.062L1128.57,257.36z M1128.651,233.956c-2.38-1.415-5.029-2.561-7.952-3.44
			c-2.922-0.876-6.281-1.323-10.072-1.336c-5.635-0.02-10.136,1.265-13.502,3.854c-3.369,2.589-5.059,5.727-5.072,9.408
			c-0.007,1.95,0.419,3.658,1.283,5.124c0.861,1.465,1.966,2.744,3.318,3.831c1.35,1.089,2.919,1.907,4.705,2.454
			c1.786,0.55,3.598,0.825,5.442,0.832c2.926,0.01,5.716-0.55,8.375-1.678c2.658-1.129,4.967-2.637,6.923-4.527
			c1.957-1.887,3.534-4.076,4.736-6.566C1128.035,239.427,1128.641,236.775,1128.651,233.956z"/>
		<path class="st1" d="M1186.247,262.761l-32.893-75.201l20.152,0.07l21.757,52.896l0.813,0.003l21.474-52.745l19.99,0.07
			l-50.293,114.567l-19.178-0.067L1186.247,262.761z"/>
	</g>
	<g>
		<path class="st2" d="M274.933,178.911l-60.704,33.996l-35.14,19.681L44.244,308.092c-0.581,0.329-1.17,0.603-1.769,0.84
			c-0.599,0.237-1.197,0.437-1.795,0.592c-0.598,0.154-1.206,0.263-1.804,0.343h-0.009c-0.607,0.071-1.205,0.106-1.803,0.104
			l-0.35-0.001c-0.368-0.001-0.736-0.03-1.103-0.077c-0.478-0.039-0.956-0.114-1.425-0.217c-0.441-0.093-0.873-0.205-1.296-0.336
			c-0.055-0.019-0.101-0.037-0.156-0.047c-0.202-0.065-0.413-0.139-0.615-0.214c-0.239-0.084-0.478-0.185-0.716-0.288
			c-0.202-0.083-0.404-0.176-0.597-0.269c-0.597-0.287-1.175-0.611-1.726-0.972c-0.184-0.111-0.367-0.24-0.551-0.37
			c-0.092-0.074-0.183-0.138-0.275-0.212c-0.156-0.111-0.312-0.231-0.459-0.36c-0.367-0.305-0.724-0.619-1.064-0.96
			c-2.603-2.594-4.265-6.196-4.25-10.362l0.904-259.955c0.014-4.167,1.701-7.757,4.322-10.333l0.166-0.165
			c0.175-0.165,0.351-0.321,0.526-0.476c0.212-0.192,0.434-0.366,0.655-0.531c0.258-0.201,0.526-0.394,0.793-0.577
			c0.267-0.183,0.544-0.357,0.83-0.512c0.203-0.119,0.405-0.238,0.617-0.338c0.221-0.128,0.451-0.238,0.682-0.338
			c0.193-0.082,0.387-0.173,0.589-0.246c0.249-0.109,0.507-0.201,0.764-0.292c0.378-0.127,0.764-0.246,1.16-0.346
			c1.16-0.29,2.365-0.442,3.579-0.438c0.248,0.001,0.487,0.011,0.736,0.021c0.607,0.03,1.223,0.105,1.829,0.227
			c0.055,0.009,0.11,0.01,0.156,0.028c0.083,0.01,0.165,0.028,0.248,0.047c0.542,0.122,1.084,0.271,1.626,0.456
			c0.864,0.288,1.727,0.677,2.571,1.159l169.319,96.357l60.466,34.417C284.917,159.078,284.867,173.353,274.933,178.911z"/>
		<path class="st3" d="M167.483,165.807l46.745,47.099l-35.14,19.681L44.244,308.083c-0.581,0.329-1.17,0.612-1.769,0.849
			c-0.599,0.237-1.197,0.437-1.795,0.592c-0.598,0.154-1.206,0.263-1.804,0.343h-0.009c-0.607,0.071-1.205,0.106-1.803,0.104
			c-0.488-0.002-0.975-0.031-1.453-0.079c-0.478-0.048-0.956-0.123-1.425-0.217c-0.441-0.093-0.873-0.205-1.296-0.336
			c-0.055-0.019-0.101-0.037-0.156-0.047c-0.202-0.065-0.413-0.139-0.615-0.214c-0.239-0.084-0.478-0.185-0.716-0.288
			c-0.202-0.083-0.404-0.176-0.597-0.269c-0.597-0.287-1.175-0.611-1.726-0.972c-0.184-0.111-0.367-0.24-0.551-0.37
			c-0.092-0.074-0.183-0.138-0.275-0.212c-0.156-0.111-0.312-0.231-0.459-0.36c-0.367-0.305-0.724-0.619-1.064-0.96L167.483,165.807
			z"/>
		<path class="st4" d="M214.555,119.034l-47.072,46.773L27.706,24.999V24.99c0.055-0.055,0.111-0.11,0.166-0.156
			c0.175-0.165,0.351-0.321,0.526-0.476c0.212-0.192,0.434-0.366,0.655-0.531c0.258-0.201,0.526-0.394,0.793-0.577
			c0.267-0.183,0.544-0.357,0.83-0.512c0.203-0.119,0.405-0.238,0.617-0.338c0.221-0.128,0.451-0.238,0.682-0.338
			c0.193-0.082,0.387-0.173,0.589-0.246c0.249-0.109,0.507-0.201,0.764-0.292c0.378-0.127,0.764-0.246,1.16-0.346
			c1.16-0.29,2.365-0.442,3.579-0.438c0.248,0.001,0.487,0.011,0.736,0.021c0.607,0.03,1.223,0.105,1.829,0.227
			c0.055,0.009,0.11,0.01,0.156,0.028c0.083,0.01,0.165,0.028,0.248,0.047c0.028,0.009,0.055,0.009,0.083,0.019
			c0.221,0.047,0.441,0.103,0.671,0.159c0.028,0.018,0.064,0.028,0.101,0.037c0.257,0.074,0.515,0.149,0.772,0.242
			c0.864,0.288,1.727,0.677,2.571,1.159L214.555,119.034z"/>
		<path class="st5" d="M274.933,178.913l-60.704,33.996l-46.745-47.099l47.072-46.773l60.466,34.417
			C284.917,159.08,284.868,173.355,274.933,178.913z"/>
	</g>
</g>
</svg>
